<svg width="300" height="300" viewBox="0 0 300 300" fill="none" xmlns="http://www.w3.org/2000/svg">
<rect width="300" height="300" rx="4" fill="white"/>
<mask id="mask0" mask-type="alpha" maskUnits="userSpaceOnUse" x="140" y="185" width="110" height="80">
<rect x="140" y="185" width="110" height="80" fill="#C4C4C4"/>
</mask>
<g mask="url(#mask0)">
<circle cx="149" cy="148" r="90" fill="#4E4E4E"/>
</g>
<rect x="140.5" y="185.5" width="109" height="79" stroke="black"/>
<mask id="mask1" mask-type="alpha" maskUnits="userSpaceOnUse" x="50" y="34" width="110" height="80">
<rect x="50" y="34" width="110" height="80" fill="#C4C4C4"/>
</mask>
<g mask="url(#mask1)">
<circle cx="150" cy="148" r="90" fill="#4E4E4E"/>
</g>
<rect x="50.5" y="34.5" width="109" height="79" stroke="black"/>
<path d="M85.98 138.1L86.9 140.82C85.9533 141.087 84.9733 141.247 83.96 141.3C82.9467 141.353 81.8667 141.38 80.72 141.38C81.9067 141.927 82.7933 142.653 83.38 143.56C83.9667 144.453 84.26 145.473 84.26 146.62C84.26 148.713 83.5933 150.433 82.26 151.78C80.94 153.127 79.0733 153.8 76.66 153.8C75.8733 153.8 75.2333 153.767 74.74 153.7C74.2467 153.62 73.7667 153.5 73.3 153.34C72.9667 153.593 72.68 153.927 72.44 154.34C72.2133 154.753 72.1 155.187 72.1 155.64C72.1 156.187 72.3133 156.64 72.74 157C73.18 157.36 73.9533 157.54 75.06 157.54H78.94C80.2867 157.54 81.5067 157.787 82.6 158.28C83.7067 158.773 84.58 159.44 85.22 160.28C85.8733 161.12 86.2 162.067 86.2 163.12C86.2 165.16 85.34 166.707 83.62 167.76C81.9133 168.827 79.5467 169.36 76.52 169.36C73.3733 169.36 71.1733 168.867 69.92 167.88C68.6667 166.893 68.04 165.32 68.04 163.16H70.32C70.32 164.04 70.4867 164.767 70.82 165.34C71.1667 165.913 71.78 166.34 72.66 166.62C73.54 166.913 74.8 167.06 76.44 167.06C81.24 167.06 83.64 165.8 83.64 163.28C83.64 162.173 83.1267 161.347 82.1 160.8C81.0733 160.253 79.84 159.98 78.4 159.98H74.52C72.84 159.98 71.6 159.587 70.8 158.8C70 158.013 69.6 157.113 69.6 156.1C69.6 154.727 70.36 153.533 71.88 152.52C69.5733 151.307 68.42 149.393 68.42 146.78C68.42 145.407 68.76 144.18 69.44 143.1C70.12 142.02 71.0667 141.167 72.28 140.54C73.4933 139.913 74.9 139.6 76.5 139.6C78.3267 139.573 79.78 139.507 80.86 139.4C81.9533 139.28 82.8733 139.113 83.62 138.9C84.38 138.687 85.1667 138.42 85.98 138.1ZM76.44 141.56C74.5467 141.56 73.16 142.06 72.28 143.06C71.4133 144.06 70.98 145.313 70.98 146.82C70.98 148.313 71.4267 149.567 72.32 150.58C73.2133 151.58 74.6267 152.08 76.56 152.08C78.1733 152.08 79.4067 151.613 80.26 150.68C81.1133 149.747 81.54 148.453 81.54 146.8C81.54 145.093 81.1133 143.793 80.26 142.9C79.4067 142.007 78.1333 141.56 76.44 141.56ZM100.704 131.5V156.24C100.704 157.333 101.051 158.107 101.744 158.56C102.451 159.013 103.338 159.24 104.404 159.24C105.071 159.24 105.698 159.173 106.284 159.04C106.884 158.907 107.491 158.72 108.104 158.48L108.824 160.4C108.304 160.653 107.644 160.88 106.844 161.08C106.044 161.293 105.151 161.4 104.164 161.4C102.511 161.4 101.104 160.953 99.9444 160.06C98.7977 159.153 98.2244 157.88 98.2244 156.24V133.66H91.7044V131.5H100.704ZM125.029 139.62C127.909 139.62 130.062 140.607 131.489 142.58C132.929 144.54 133.649 147.18 133.649 150.5C133.649 152.58 133.322 154.44 132.669 156.08C132.015 157.72 131.042 159.02 129.749 159.98C128.469 160.927 126.875 161.4 124.969 161.4C123.049 161.4 121.442 160.947 120.149 160.04C118.869 159.12 117.902 157.847 117.249 156.22C116.609 154.58 116.289 152.687 116.289 150.54C116.289 148.393 116.615 146.5 117.269 144.86C117.922 143.22 118.895 141.94 120.189 141.02C121.495 140.087 123.109 139.62 125.029 139.62ZM125.029 141.8C123.055 141.8 121.555 142.513 120.529 143.94C119.515 145.367 119.009 147.567 119.009 150.54C119.009 156.313 120.995 159.2 124.969 159.2C128.942 159.2 130.929 156.3 130.929 150.5C130.929 147.553 130.429 145.367 129.429 143.94C128.442 142.513 126.975 141.8 125.029 141.8ZM145.693 147.32C145.693 146.413 145.993 145.653 146.593 145.04C147.206 144.427 147.973 144.12 148.893 144.12C149.84 144.12 150.62 144.427 151.233 145.04C151.86 145.653 152.173 146.413 152.173 147.32C152.173 148.253 151.86 149.033 151.233 149.66C150.62 150.287 149.84 150.6 148.893 150.6C147.973 150.6 147.206 150.287 146.593 149.66C145.993 149.033 145.693 148.253 145.693 147.32ZM174.038 139.62C175.918 139.62 177.411 140.073 178.518 140.98C179.624 141.887 180.418 143.16 180.898 144.8C181.378 146.427 181.618 148.327 181.618 150.5C181.618 152.607 181.324 154.48 180.738 156.12C180.164 157.76 179.278 159.053 178.078 160C176.891 160.933 175.371 161.4 173.518 161.4C171.131 161.4 169.224 160.567 167.798 158.9V169.02L165.318 169.36V140H167.358L167.638 143.1C168.384 142.033 169.298 141.187 170.378 140.56C171.471 139.933 172.691 139.62 174.038 139.62ZM173.598 141.74C172.304 141.74 171.164 142.133 170.178 142.92C169.191 143.693 168.398 144.52 167.798 145.4V156.28C168.384 157.147 169.144 157.84 170.078 158.36C171.011 158.88 172.024 159.14 173.118 159.14C176.971 159.14 178.898 156.247 178.898 150.46C178.898 147.673 178.471 145.527 177.618 144.02C176.778 142.5 175.438 141.74 173.598 141.74ZM196.982 139.62C199.862 139.62 202.015 140.607 203.442 142.58C204.882 144.54 205.602 147.18 205.602 150.5C205.602 152.58 205.275 154.44 204.622 156.08C203.969 157.72 202.995 159.02 201.702 159.98C200.422 160.927 198.829 161.4 196.922 161.4C195.002 161.4 193.395 160.947 192.102 160.04C190.822 159.12 189.855 157.847 189.202 156.22C188.562 154.58 188.242 152.687 188.242 150.54C188.242 148.393 188.569 146.5 189.222 144.86C189.875 143.22 190.849 141.94 192.142 141.02C193.449 140.087 195.062 139.62 196.982 139.62ZM196.982 141.8C195.009 141.8 193.509 142.513 192.482 143.94C191.469 145.367 190.962 147.567 190.962 150.54C190.962 156.313 192.949 159.2 196.922 159.2C200.895 159.2 202.882 156.3 202.882 150.5C202.882 147.553 202.382 145.367 201.382 143.94C200.395 142.513 198.929 141.8 196.982 141.8ZM220.046 159.14C221.833 159.14 223.233 158.8 224.246 158.12C225.273 157.427 225.786 156.52 225.786 155.4C225.786 154.707 225.673 154.107 225.446 153.6C225.233 153.08 224.76 152.62 224.026 152.22C223.306 151.807 222.193 151.42 220.686 151.06C219.18 150.687 217.873 150.273 216.766 149.82C215.673 149.367 214.826 148.773 214.226 148.04C213.626 147.307 213.326 146.333 213.326 145.12C213.326 143.96 213.653 142.973 214.306 142.16C214.973 141.333 215.88 140.707 217.026 140.28C218.186 139.84 219.493 139.62 220.946 139.62C222.586 139.62 224.013 139.84 225.226 140.28C226.453 140.72 227.48 141.253 228.306 141.88L227.146 143.72C226.373 143.173 225.513 142.72 224.566 142.36C223.62 142 222.42 141.82 220.966 141.82C219.113 141.82 217.813 142.113 217.066 142.7C216.32 143.287 215.946 144.027 215.946 144.92C215.946 145.613 216.126 146.187 216.486 146.64C216.86 147.08 217.466 147.473 218.306 147.82C219.146 148.153 220.28 148.513 221.706 148.9C223.08 149.26 224.28 149.693 225.306 150.2C226.333 150.707 227.133 151.367 227.706 152.18C228.28 152.993 228.566 154.047 228.566 155.34C228.566 156.82 228.146 158.007 227.306 158.9C226.48 159.78 225.413 160.42 224.106 160.82C222.8 161.207 221.44 161.4 220.026 161.4C218.173 161.4 216.606 161.127 215.326 160.58C214.06 160.033 213.006 159.393 212.166 158.66L213.706 156.84C214.533 157.533 215.486 158.093 216.566 158.52C217.646 158.933 218.806 159.14 220.046 159.14Z" fill="black"/>
</svg>
